<?xml version="1.0" encoding="UTF-8" standalone="no"?>
<svg
   xmlns:dc="http://purl.org/dc/elements/1.1/"
   xmlns:cc="http://creativecommons.org/ns#"
   xmlns:rdf="http://www.w3.org/1999/02/22-rdf-syntax-ns#"
   xmlns:svg="http://www.w3.org/2000/svg"
   xmlns="http://www.w3.org/2000/svg"
   viewBox="0 0 1333.3333 1440"
   height="1440"
   width="1333.3333"
   id="svg3806"
   version="1.1">
  <metadata
     id="metadata3812">
    <rdf:RDF>
      <cc:Work
         rdf:about="">
        <dc:format>image/svg+xml</dc:format>
        <dc:type
           rdf:resource="http://purl.org/dc/dcmitype/StillImage" />
        <dc:title></dc:title>
      </cc:Work>
    </rdf:RDF>
  </metadata>
  <defs
     id="defs3810" />
  <g
     id="layer1" />
  <path
     id="path3844"
     d="M 666.09775,11.732903 A 645.2877,649.54005 0 0 0 22.94895,618.30067 H 438.4786 a 235.3096,235.3096 0 0 1 229.47117,-184.5489 235.3096,235.3096 0 0 1 229.59388,184.5489 H 1309.8773 A 645.2877,649.54005 0 0 0 666.09775,11.732903 Z M 23.936314,719.73678 A 645.2877,649.54005 0 0 0 666.1006,1310.812 645.2877,649.54005 0 0 0 1308.4789,719.73678 H 897.43806 A 235.3096,235.3096 0 0 1 667.94977,904.37128 235.3096,235.3096 0 0 1 438.33021,719.73678 Z"
     style="fill:#e6e6e6;fill-opacity:1;stroke-width:1.42696118" />
  <circle
     r="124.57568"
     cy="672.83557"
     cx="667.94873"
     id="path1650"
     style="fill:#e6e6e6;fill-opacity:1;stroke-width:3.07757854" />
</svg>
